HIERARCHY
ROOT Hips
{
  OFFSET 0.000000 0.000000 0.000000
  CHANNELS 6 Xposition Yposition Zposition Zrotation Xrotation Yrotation
  JOINT Spine
  {
    OFFSET 0.000000 10.000000 0.000000
    CHANNELS 3 Zrotation Xrotation Yrotation
    JOINT Spine1
    {
      OFFSET 0.000000 10.000000 0.000000
      CHANNELS 3 Zrotation Xrotation Yrotation
      JOINT Spine2
      {
        OFFSET 0.000000 10.000000 0.000000
        CHANNELS 3 Zrotation Xrotation Yrotation
        JOINT Neck
        {
          OFFSET 0.000000 10.000000 0.000000
          CHANNELS 3 Zrotation Xrotation Yrotation
          JOINT Head
          {
            OFFSET 0.000000 10.000000 0.000000
            CHANNELS 3 Zrotation Xrotation Yrotation
            End Site
            {
              OFFSET 0.0 -10.0 0.0
            }
          }
        }
        JOINT LeftShoulder
        {
          OFFSET -5.000000 5.000000 0.000000
          CHANNELS 3 Zrotation Xrotation Yrotation
          JOINT LeftArm
          {
            OFFSET -10.000000 0.000000 0.000000
            CHANNELS 3 Zrotation Xrotation Yrotation
            JOINT LeftForeArm
            {
              OFFSET -10.000000 0.000000 0.000000
              CHANNELS 3 Zrotation Xrotation Yrotation
              JOINT LeftHand
              {
                OFFSET -10.000000 0.000000 0.000000
                CHANNELS 3 Zrotation Xrotation Yrotation
                End Site
                {
                  OFFSET 0.0 -10.0 0.0
                }
              }
            }
          }
        }
        JOINT RightShoulder
        {
          OFFSET 5.000000 5.000000 0.000000
          CHANNELS 3 Zrotation Xrotation Yrotation
          JOINT RightArm
          {
            OFFSET 10.000000 0.000000 0.000000
            CHANNELS 3 Zrotation Xrotation Yrotation
            JOINT RightForeArm
            {
              OFFSET 10.000000 0.000000 0.000000
              CHANNELS 3 Zrotation Xrotation Yrotation
              JOINT RightHand
              {
                OFFSET 10.000000 0.000000 0.000000
                CHANNELS 3 Zrotation Xrotation Yrotation
                End Site
                {
                  OFFSET 0.0 -10.0 0.0
                }
              }
            }
          }
        }
      }
    }
  }
  JOINT LeftUpLeg
  {
    OFFSET 0.000000 0.000000 0.000000
    CHANNELS 3 Zrotation Xrotation Yrotation
    JOINT LeftLeg
    {
      OFFSET 0.000000 0.000000 0.000000
      CHANNELS 3 Zrotation Xrotation Yrotation
      JOINT LeftFoot
      {
        OFFSET 0.000000 0.000000 0.000000
        CHANNELS 3 Zrotation Xrotation Yrotation
        End Site
        {
          OFFSET 0.0 -10.0 0.0
        }
      }
    }
  }
  JOINT RightUpLeg
  {
    OFFSET 5.000000 -5.000000 0.000000
    CHANNELS 3 Zrotation Xrotation Yrotation
    JOINT RightLeg
    {
      OFFSET 0.000000 -20.000000 0.000000
      CHANNELS 3 Zrotation Xrotation Yrotation
      JOINT RightFoot
      {
        OFFSET 0.000000 -20.000000 0.000000
        CHANNELS 3 Zrotation Xrotation Yrotation
        End Site
        {
          OFFSET 0.0 -10.0 0.0
        }
      }
    }
  }
}
MOTION
Frames: 19
Frame Time: 0.033333
0.000000 90.000000 0.000000 0.000000 0.000000 0.000000 -18.272574 0.000000 0.000000 -23.761309 0.000000 0.000000 39.168076 0.000000 0.000000 -4.088210 0.000000 0.000000 0.000000 0.000000 0.000000 39.652734 -4.543658 -12.553130 -17.542170 -4.768374 28.607984 26.565051 0.000000 0.000000 0.000000 0.000000 0.000000 -20.222231 0.098534 -0.556681 151.966425 -74.005637 -21.210198 -26.565051 0.000000 0.000000 0.000000 0.000000 0.000000 -89.975714 2.207881 2.204958 -21.135111 5.327556 0.994600 0.000000 0.000000 0.000000 -103.935929 0.096348 0.109860 -110.682971 -1.306195 -1.992535 0.000000 0.000000 0.000000
0.000000 90.000000 0.000000 0.000000 0.000000 0.000000 -18.399081 0.000000 0.000000 -23.917666 0.000000 0.000000 39.395920 0.000000 0.000000 -4.109328 0.000000 0.000000 0.000000 0.000000 0.000000 39.317137 -4.469727 -12.456507 -16.227556 -4.303867 27.197515 26.565051 0.000000 0.000000 0.000000 0.000000 0.000000 -20.251578 0.081031 -0.458191 151.131357 -73.498250 -21.623357 -26.565051 0.000000 0.000000 0.000000 0.000000 0.000000 -89.588807 2.281310 2.259938 -21.276954 5.303332 0.996632 0.000000 0.000000 0.000000 -104.338571 0.001917 -0.015415 -113.127995 -1.464779 -2.451375 0.000000 0.000000 0.000000
0.000000 90.000000 0.000000 0.000000 0.000000 0.000000 -18.490974 0.000000 0.000000 -24.031215 0.000000 0.000000 39.515199 0.000000 0.000000 -4.144309 0.000000 0.000000 0.000000 0.000000 0.000000 39.078875 -4.419589 -12.395717 -15.115908 -3.928174 25.938128 26.565051 0.000000 0.000000 0.000000 0.000000 0.000000 -20.400518 0.059436 -0.342652 149.798040 -73.038280 -22.406559 -26.565051 0.000000 0.000000 0.000000 0.000000 0.000000 -88.750171 2.524574 2.435171 -21.591456 5.250469 1.000225 0.000000 0.000000 0.000000 -105.356410 -0.192248 -0.319947 -115.583829 -1.572002 -2.863204 0.000000 0.000000 0.000000
0.000000 90.000000 0.000000 0.000000 0.000000 0.000000 -18.609598 0.000000 0.000000 -24.177521 0.000000 0.000000 39.529368 0.000000 0.000000 -4.248396 0.000000 0.000000 0.000000 0.000000 0.000000 38.933281 -4.388358 -12.358058 -14.521135 -3.654657 24.819629 26.565051 0.000000 0.000000 0.000000 0.000000 0.000000 -20.671528 0.026137 -0.180022 148.254920 -72.500639 -23.263849 -26.565051 0.000000 0.000000 0.000000 0.000000 0.000000 -88.214835 2.649307 2.526182 -21.926702 5.209377 1.007027 0.000000 0.000000 0.000000 -106.086366 -0.358033 -0.572721 -118.356151 -1.682285 -3.505097 0.000000 0.000000 0.000000
0.000000 90.000000 0.000000 0.000000 0.000000 0.000000 -18.800198 0.000000 0.000000 -24.412680 0.000000 0.000000 39.738337 0.000000 0.000000 -4.338079 0.000000 0.000000 0.000000 0.000000 0.000000 38.626956 -4.319445 -12.274937 -13.047769 -3.034442 22.679214 26.565051 0.000000 0.000000 0.000000 0.000000 0.000000 -20.973659 -0.018987 0.034715 145.623395 -71.192592 -24.598021 -26.565051 0.000000 0.000000 0.000000 0.000000 0.000000 -87.154531 2.946422 2.747915 -22.448229 5.132860 1.013732 0.000000 0.000000 0.000000 -107.515986 -0.621361 -0.956450 -123.878573 -1.898236 -4.959666 0.000000 0.000000 0.000000
0.000000 90.000000 0.000000 0.000000 0.000000 0.000000 -18.991604 0.000000 0.000000 -24.648563 0.000000 0.000000 39.868168 0.000000 0.000000 -4.460579 0.000000 0.000000 0.000000 0.000000 0.000000 38.421461 -4.272199 -12.215362 -11.010630 -2.105371 20.123101 26.565051 0.000000 0.000000 0.000000 0.000000 0.000000 -21.394912 -0.086120 0.358154 142.029579 -69.665437 -26.459745 -26.565051 0.000000 0.000000 0.000000 0.000000 0.000000 -85.854861 3.299074 2.989970 -23.256291 5.027999 1.026268 0.000000 0.000000 0.000000 -109.181475 -0.945003 -1.468824 -130.061281 -2.149709 -6.843471 0.000000 0.000000 0.000000
0.000000 90.000000 0.000000 0.000000 0.000000 0.000000 -19.177186 0.000000 0.000000 -24.877581 0.000000 0.000000 39.898413 0.000000 0.000000 -4.619482 0.000000 0.000000 0.000000 0.000000 0.000000 38.214495 -4.222628 -12.146709 -10.242959 -1.789832 18.660824 26.565051 0.000000 0.000000 0.000000 0.000000 0.000000 -21.980000 -0.164926 0.751429 137.653891 -68.439196 -28.934952 -26.565051 0.000000 0.000000 0.000000 0.000000 0.000000 -83.997368 3.753037 3.250500 -24.262025 4.878492 1.035185 0.000000 0.000000 0.000000 -111.032616 -1.337954 -2.153142 -136.547123 -2.321666 -9.431761 0.000000 0.000000 0.000000
0.000000 90.000000 0.000000 0.000000 0.000000 0.000000 -19.214118 0.000000 0.000000 -24.923169 0.000000 0.000000 39.774379 0.000000 0.000000 -4.705042 0.000000 0.000000 0.000000 0.000000 0.000000 38.087124 -4.191705 -12.103252 -9.505267 -1.473804 16.988628 26.565051 0.000000 0.000000 0.000000 0.000000 0.000000 -22.595011 -0.248737 1.144160 132.596888 -67.081330 -31.817858 -26.565051 0.000000 0.000000 0.000000 0.000000 0.000000 -81.592369 4.356001 3.606667 -25.527885 4.672970 1.040688 0.000000 0.000000 0.000000 -113.263713 -1.790087 -3.022915 -142.691599 -2.533435 -12.303313 0.000000 0.000000 0.000000
0.000000 90.000000 0.000000 0.000000 0.000000 0.000000 -19.194235 0.000000 0.000000 -24.898646 0.000000 0.000000 39.538842 0.000000 0.000000 -4.784924 0.000000 0.000000 0.000000 0.000000 0.000000 38.072944 -4.175010 -12.059617 -9.036354 -1.287954 15.706323 26.565051 0.000000 0.000000 0.000000 0.000000 0.000000 -23.228587 -0.332312 1.532242 126.091070 -64.845665 -34.700918 -26.565051 0.000000 0.000000 0.000000 0.000000 0.000000 -79.289853 4.906123 3.919994 -26.910325 4.454893 1.043008 0.000000 0.000000 0.000000 -115.379290 -2.288221 -3.911196 -148.507827 -2.759529 -15.787563 0.000000 0.000000 0.000000
0.000000 90.000000 0.000000 0.000000 0.000000 0.000000 -19.084615 0.000000 0.000000 -24.763172 0.000000 0.000000 39.280291 0.000000 0.000000 -4.790911 0.000000 0.000000 0.000000 0.000000 0.000000 38.010474 -4.142354 -11.984517 -8.943901 -1.193870 14.798257 26.565051 0.000000 0.000000 0.000000 0.000000 0.000000 -23.827224 -0.418833 1.919221 118.468057 -61.758754 -37.293466 -26.565051 0.000000 0.000000 0.000000 0.000000 0.000000 -77.325616 5.334220 4.114709 -28.522738 4.222049 1.040921 0.000000 0.000000 0.000000 -117.049349 -2.702659 -4.737816 -153.891168 -3.129380 -19.664259 0.000000 0.000000 0.000000
0.000000 90.000000 0.000000 0.000000 0.000000 0.000000 -18.869796 0.000000 0.000000 -24.497693 0.000000 0.000000 39.101339 0.000000 0.000000 -4.666486 0.000000 0.000000 0.000000 0.000000 0.000000 37.911451 -4.101746 -11.898953 -8.826245 -1.111103 14.223481 26.565051 0.000000 0.000000 0.000000 0.000000 0.000000 -24.391823 -0.493571 2.224518 109.143370 -57.509792 -39.066923 -26.565051 0.000000 0.000000 0.000000 0.000000 0.000000 -75.385791 5.751255 4.345720 -30.623666 3.960838 1.043023 0.000000 0.000000 0.000000 -118.355851 -3.087848 -5.404927 -158.187766 -3.559741 -23.110754 0.000000 0.000000 0.000000
0.000000 90.000000 0.000000 0.000000 0.000000 0.000000 -18.564964 0.000000 0.000000 -24.120462 0.000000 0.000000 38.805550 0.000000 0.000000 -4.507325 0.000000 0.000000 0.000000 0.000000 0.000000 37.798492 -4.054241 -11.799611 -9.240067 -1.162796 14.106152 26.565051 0.000000 0.000000 0.000000 0.000000 0.000000 -24.970185 -0.553517 2.459022 97.978920 -52.089380 -39.480487 -26.565051 0.000000 0.000000 0.000000 0.000000 0.000000 -73.986288 5.962570 4.448130 -33.256206 3.691066 1.050742 0.000000 0.000000 0.000000 -118.850349 -3.412815 -5.883369 -160.896692 -3.879251 -25.728703 0.000000 0.000000 0.000000
0.000000 90.000000 0.000000 0.000000 0.000000 0.000000 -18.203203 0.000000 0.000000 -23.672632 0.000000 0.000000 38.431845 0.000000 0.000000 -4.328353 0.000000 0.000000 0.000000 0.000000 0.000000 37.569113 -3.979213 -11.656404 -10.154165 -1.333154 14.404448 26.565051 0.000000 0.000000 0.000000 0.000000 0.000000 -25.714727 -0.607068 2.633086 85.686804 -45.732084 -38.127372 -26.565051 0.000000 0.000000 0.000000 0.000000 0.000000 -72.981841 6.030824 4.448759 -36.307703 3.403331 1.054122 0.000000 0.000000 0.000000 -118.579209 -3.634297 -6.180978 -162.661094 -4.134465 -27.791884 0.000000 0.000000 0.000000
0.000000 90.000000 0.000000 0.000000 0.000000 0.000000 -17.865137 0.000000 0.000000 -23.253764 0.000000 0.000000 38.286446 0.000000 0.000000 -4.077281 0.000000 0.000000 0.000000 0.000000 0.000000 37.341841 -3.909888 -11.525282 -11.085306 -1.517826 14.717370 26.565051 0.000000 0.000000 0.000000 0.000000 0.000000 -26.312381 -0.617636 2.646312 73.684416 -38.743503 -36.459605 -26.565051 0.000000 0.000000 0.000000 0.000000 0.000000 -72.645798 5.918727 4.335542 -39.555736 3.134844 1.062095 0.000000 0.000000 0.000000 -117.952716 -3.785719 -6.359601 -163.515505 -4.251446 -29.212531 0.000000 0.000000 0.000000
0.000000 90.000000 0.000000 0.000000 0.000000 0.000000 -17.623608 0.000000 0.000000 -22.954017 0.000000 0.000000 38.220795 0.000000 0.000000 -3.882602 0.000000 0.000000 0.000000 0.000000 0.000000 37.045221 -3.827661 -11.381070 -12.660715 -1.871940 15.470781 26.565051 0.000000 0.000000 0.000000 0.000000 0.000000 -27.037804 -0.610282 2.570299 62.347095 -31.393169 -34.579570 -26.565051 0.000000 0.000000 0.000000 0.000000 0.000000 -73.034672 5.615961 4.123892 -42.867941 2.913752 1.084875 0.000000 0.000000 0.000000 -116.539707 -3.800441 -6.231153 -164.319356 -4.355704 -31.165273 0.000000 0.000000 0.000000
0.000000 90.000000 0.000000 0.000000 0.000000 0.000000 -17.376162 0.000000 0.000000 -22.646682 0.000000 0.000000 38.054412 0.000000 0.000000 -3.722858 0.000000 0.000000 0.000000 0.000000 0.000000 36.750228 -3.755103 -11.262050 -14.582047 -2.311715 16.536168 26.565051 0.000000 0.000000 0.000000 0.000000 0.000000 -27.971337 -0.609252 2.491032 52.429297 -24.355307 -32.312904 -26.565051 0.000000 0.000000 0.000000 0.000000 0.000000 -73.555008 5.290929 3.914453 -46.277495 2.689138 1.098289 0.000000 0.000000 0.000000 -115.261488 -3.835913 -6.123942 -164.948466 -4.392594 -33.201340 0.000000 0.000000 0.000000
0.000000 90.000000 0.000000 0.000000 0.000000 0.000000 -17.241694 0.000000 0.000000 -22.479433 0.000000 0.000000 38.059127 0.000000 0.000000 -3.598042 0.000000 0.000000 0.000000 0.000000 0.000000 36.424793 -3.677586 -11.131575 -16.369834 -2.736278 17.616657 26.565051 0.000000 0.000000 0.000000 0.000000 0.000000 -29.362706 -0.635975 2.442485 43.360610 -17.701187 -29.375029 -26.565051 0.000000 0.000000 0.000000 0.000000 0.000000 -74.374390 4.880300 3.668363 -49.690397 2.481024 1.103465 0.000000 0.000000 0.000000 -113.549863 -3.804956 -5.833648 -165.319900 -4.448435 -34.959094 0.000000 0.000000 0.000000
0.000000 90.000000 0.000000 0.000000 0.000000 0.000000 -17.253276 0.000000 0.000000 -22.493824 0.000000 0.000000 38.207038 0.000000 0.000000 -3.547897 0.000000 0.000000 0.000000 0.000000 0.000000 36.020931 -3.586261 -10.981950 -17.533713 -2.943718 18.195078 26.565051 0.000000 0.000000 0.000000 0.000000 0.000000 -30.691394 -0.668198 2.412790 36.021245 -12.076408 -26.282376 -26.565051 0.000000 0.000000 0.000000 0.000000 0.000000 -74.892655 4.571363 3.484984 -53.103777 2.229529 1.061613 0.000000 0.000000 0.000000 -112.445435 -3.839973 -5.736192 -165.967496 -4.470671 -37.611069 0.000000 0.000000 0.000000
0.000000 90.000000 0.000000 0.000000 0.000000 0.000000 -17.335136 0.000000 0.000000 -22.595719 0.000000 0.000000 38.213094 0.000000 0.000000 -3.620199 0.000000 0.000000 0.000000 0.000000 0.000000 35.645753 -3.505568 -10.862245 -18.112157 -3.031156 18.368638 26.565051 0.000000 0.000000 0.000000 0.000000 0.000000 -32.063873 -0.724447 2.455793 30.490472 -8.035472 -23.286708 -26.565051 0.000000 0.000000 0.000000 0.000000 0.000000 -74.973224 4.420645 3.381065 -55.961498 1.969831 0.989388 0.000000 0.000000 0.000000 -111.973362 -3.929476 -5.821749 -166.915287 -4.503578 -40.875150 0.000000 0.000000 0.000000
